<?xml version="1.0" encoding="utf-8"?>
<!-- Generator: Adobe Illustrator 19.2.1, SVG Export Plug-In . SVG Version: 6.00 Build 0)  -->
<svg version="1.0" id="Layer_1" xmlns="http://www.w3.org/2000/svg" xmlns:xlink="http://www.w3.org/1999/xlink" x="0px" y="0px"
	 viewBox="0 0 666 666" enable-background="new 0 0 666 666" xml:space="preserve">
<!--my basic understanding of the transformation matrix:
		0 digit is the x scale
		1 digit fucks with forward rotation...
			as I can understand it squishes the source coordinate system of the object downwards.
		2 digit kind of shears the text, backwards on positive
		[12] together rotate the text, though they fuck with the scale.
			   -->
<!-- 
<text transform="matrix(1 0 0 1 50 50)" font-family="'MyriadPro-Regular'" font-size="50px">hello world</text>
<text transform="matrix(1 0.1 0 1 50 50)" font-family="'MyriadPro-Regular'" font-size="50px">hello world</text>
<text transform="matrix(1 0.2 0 1 50 50)" font-family="'MyriadPro-Regular'" font-size="50px">hello world</text>
<text transform="matrix(1 0.3 0 1 50 50)" font-family="'MyriadPro-Regular'" font-size="50px">hello world</text>
<text transform="matrix(1 0.4 0 1 50 50)" font-family="'MyriadPro-Regular'" font-size="50px">hello world</text>
<text transform="matrix(1 0.5 0 1 50 50)" font-family="'MyriadPro-Regular'" font-size="50px">hello world</text>
<text transform="matrix(1 0.6 0 1 50 50)" font-family="'MyriadPro-Regular'" font-size="50px">hello world</text>
<text transform="matrix(1 0.7 0 1 50 50)" font-family="'MyriadPro-Regular'" font-size="50px">hello world</text>
<text transform="matrix(1 0.8 0 1 50 50)" font-family="'MyriadPro-Regular'" font-size="50px">hello world</text>
<text transform="matrix(1 0.9 0 1 50 50)" font-family="'MyriadPro-Regular'" font-size="50px">hello world</text>
<text transform="matrix(1 1 0 1 50 50)" font-family="'MyriadPro-Regular'" font-size="50px">hello world</text>
-->

<text transform="matrix(1 -0.33333 0.33333 1 333 333)" font-family="'MyriadPro-Regular'" font-size="50px">hello world</text>



</svg>
